<svg xmlns="http://www.w3.org/2000/svg" role="img" viewBox="-20.08 -21.08 1564.16 497.16"><g fill="#61dafb"><path d="M500.61 228.31c0-32.5-40.7-63.3-103.1-82.4 14.4-63.6 8-114.2-20.2-130.4-6.5-3.8-14.1-5.6-22.4-5.6v22.3c4.6 0 8.3.9 11.4 2.6 13.6 7.8 19.5 37.5 14.9 75.7-1.1 9.4-2.9 19.3-5.1 29.4-19.6-4.8-41-8.5-63.5-10.9-13.5-18.5-27.5-35.3-41.6-50 32.6-30.3 63.2-46.9 84-46.9V9.81c-27.5 0-63.5 19.6-99.9 53.6-36.4-33.8-72.4-53.2-99.9-53.2v22.3c20.7 0 51.4 16.5 84 46.6-14 14.7-28 31.4-41.3 49.9-22.6 2.4-44 6.1-63.6 11-2.3-10-4-19.7-5.2-29-4.7-38.2 1.1-67.9 14.6-75.8 3-1.8 6.9-2.6 11.5-2.6v-22.3c-8.4 0-16 1.8-22.6 5.6-28.1 16.2-34.4 66.7-19.9 130.1-62.2 19.2-102.7 49.9-102.7 82.3 0 32.5 40.7 63.3 103.1 82.4-14.4 63.6-8 114.2 20.2 130.4 6.5 3.8 14.1 5.6 22.5 5.6 27.5 0 63.5-19.6 99.9-53.6 36.4 33.8 72.4 53.2 99.9 53.2 8.4 0 16-1.8 22.6-5.6 28.1-16.2 34.4-66.7 19.9-130.1 62-19.1 102.5-49.9 102.5-82.3zm-130.2-66.7c-3.7 12.9-8.3 26.2-13.5 39.5-4.1-8-8.4-16-13.1-24-4.6-8-9.5-15.8-14.4-23.4 14.2 2.1 27.9 4.7 41 7.9zm-45.8 106.5c-7.8 13.5-15.8 26.3-24.1 38.2-14.9 1.3-30 2-45.2 2-15.1 0-30.2-.7-45-1.9-8.3-11.9-16.4-24.6-24.2-38-7.6-13.1-14.5-26.4-20.8-39.8 6.2-13.4 13.2-26.8 20.7-39.9 7.8-13.5 15.8-26.3 24.1-38.2 14.9-1.3 30-2 45.2-2 15.1 0 30.2.7 45 1.9 8.3 11.9 16.4 24.6 24.2 38 7.6 13.1 14.5 26.4 20.8 39.8-6.3 13.4-13.2 26.8-20.7 39.9zm32.3-13c5.4 13.4 10 26.8 13.8 39.8-13.1 3.2-26.9 5.9-41.2 8 4.9-7.7 9.8-15.6 14.4-23.7 4.6-8 8.9-16.1 13-24.1zm-101.4 106.7c-9.3-9.6-18.6-20.3-27.8-32 9 .4 18.2.7 27.5.7 9.4 0 18.7-.2 27.8-.7-9 11.7-18.3 22.4-27.5 32zm-74.4-58.9c-14.2-2.1-27.9-4.7-41-7.9 3.7-12.9 8.3-26.2 13.5-39.5 4.1 8 8.4 16 13.1 24 4.7 8 9.5 15.8 14.4 23.4zm73.9-208.1c9.3 9.6 18.6 20.3 27.8 32-9-.4-18.2-.7-27.5-.7-9.4 0-18.7.2-27.8.7 9-11.7 18.3-22.4 27.5-32zm-74 58.9c-4.9 7.7-9.8 15.6-14.4 23.7-4.6 8-8.9 16-13 24-5.4-13.4-10-26.8-13.8-39.8 13.1-3.1 26.9-5.8 41.2-7.9zm-90.5 125.2c-35.4-15.1-58.3-34.9-58.3-50.6 0-15.7 22.9-35.6 58.3-50.6 8.6-3.7 18-7 27.7-10.1 5.7 19.6 13.2 40 22.5 60.9-9.2 20.8-16.6 41.1-22.2 60.6-9.9-3.1-19.3-6.5-28-10.2zm53.8 142.9c-13.6-7.8-19.5-37.5-14.9-75.7 1.1-9.4 2.9-19.3 5.1-29.4 19.6 4.8 41 8.5 63.5 10.9 13.5 18.5 27.5 35.3 41.6 50-32.6 30.3-63.2 46.9-84 46.9-4.5-.1-8.3-1-11.3-2.7zm237.2-76.2c4.7 38.2-1.1 67.9-14.6 75.8-3 1.8-6.9 2.6-11.5 2.6-20.7 0-51.4-16.5-84-46.6 14-14.7 28-31.4 41.3-49.9 22.6-2.4 44-6.1 63.6-11 2.3 10.1 4.1 19.8 5.2 29.1zm38.5-66.7c-8.6 3.7-18 7-27.7 10.1-5.7-19.6-13.2-40-22.5-60.9 9.2-20.8 16.6-41.1 22.2-60.6 9.9 3.1 19.3 6.5 28.1 10.2 35.4 15.1 58.3 34.9 58.3 50.6-.1 15.7-23 35.6-58.4 50.6zm-264.9-268.7z"/><path d="M300.91 228.31c0 25.239-20.461 45.7-45.7 45.7-25.239 0-45.7-20.461-45.7-45.7 0-25.239 20.461-45.7 45.7-45.7 25.239 0 45.7 20.461 45.7 45.7z"/></g><path fill="#61dafb" d="M835.79608 347h-40.78369l-79.02832-93.94531h-44.2749V347h-31.4209V110.7085h66.17432q21.42334 0 35.70556 2.85644 14.28223 2.69776 25.70801 9.83887 12.854 8.09326 19.99512 20.47119 7.2998 12.21924 7.2998 31.10352 0 25.54931-12.854 42.84668-12.85401 17.13867-35.38819 25.86669zm-73.47412-169.7998q0-10.15625-3.6499-17.93213-3.49121-7.93457-11.74317-13.33008-6.82373-4.60205-16.18652-6.34766-9.36279-1.90429-22.0581-1.90429h-36.9751v89.18457h31.73828q14.91699 0 26.02539-2.53907 11.1084-2.69775 18.88428-9.83886 7.14111-6.66504 10.47363-15.23438 3.49121-8.72803 3.49121-22.0581zm249.93894 84.26513h-130.603q0 16.34522 4.91943 28.56446 4.91944 12.06054 13.48877 19.83642 8.25195 7.61719 19.51904 11.42578 11.42579 3.8086 25.07325 3.8086 18.09082 0 36.34033-7.14112 18.4082-7.2998 26.18408-14.28222h1.5869v32.53173q-15.07567 6.34766-30.78612 10.63233-15.71045 4.28467-33.00781 4.28467-44.11621 0-68.87207-23.80371-24.75586-23.96241-24.75586-67.91993 0-43.48144 23.64502-69.03076 23.80371-25.54931 62.52441-25.54931 35.86426 0 55.22461 20.94726 19.51902 20.94727 19.51902 59.50928zm-29.0405-22.85156q-.15869-23.48633-11.90186-36.34033-11.58447-12.85401-35.38818-12.85401-23.9624 0-38.24463 14.12354-14.12354 14.12353-16.02783 35.0708zM1195.2321 347h-29.6753v-18.88428q-3.9673 2.69776-10.791 7.61719-6.665 4.76074-13.0127 7.61719-7.4585 3.6499-17.1387 6.03027-9.6801 2.53906-22.6928 2.53906-23.9624 0-40.625-15.86914t-16.6626-40.46631q0-20.1538 8.5693-32.53173 8.728-12.53663 24.7559-19.67774 16.1865-7.14111 38.8794-9.68017 22.6928-2.53907 48.7182-3.8086v-4.60205q0-10.15625-3.6499-16.82129-3.4912-6.66504-10.1562-10.47363-6.3477-3.6499-15.2344-4.91943-8.8867-1.26954-18.5669-1.26954-11.7432 0-26.1841 3.17383-14.4409 3.01514-29.834 8.88672h-1.5869v-30.31006q8.728-2.38037 25.232-5.23681 16.5039-2.85645 32.5317-2.85645 18.7256 0 32.5317 3.17383 13.9649 3.01514 24.1211 10.47363 9.9976 7.29981 15.2344 18.88428 5.2368 11.58447 5.2368 28.72314zm-29.6753-43.64014v-49.35302q-13.6474.79345-32.2143 2.38037-18.4082 1.58691-29.1993 4.60205-12.854 3.6499-20.7885 11.42578-7.9346 7.61719-7.9346 21.10596 0 15.23437 9.2041 23.01025 9.2041 7.61719 28.0884 7.61719 15.7104 0 28.7231-6.03028 13.0127-6.18896 24.1211-14.7583zm218.5181 32.53174q-14.917 7.14111-28.4058 11.1084-13.33 3.96729-28.4057 3.96729-19.2017 0-35.2295-5.5542-16.0279-5.71289-27.4536-17.13868-11.5845-11.42578-17.9322-28.88183-6.3476-17.45606-6.3476-40.78369 0-43.48145 23.8037-68.23731 23.9624-24.75586 63.1592-24.75586 15.2343 0 29.834 4.28467 14.7583 4.28467 26.9775 10.47363v33.16651h-1.5869q-13.6475-10.63233-28.2471-16.34522-14.4409-5.71289-28.2471-5.71289-25.3906 0-40.1489 17.13867-14.5996 16.97998-14.5996 49.9878 0 32.05566 14.2822 49.35302 14.4409 17.13868 40.4663 17.13868 9.0454 0 18.4082-2.38038 9.3628-2.38037 16.8213-6.18896 6.5064-3.33252 12.2193-6.98242 5.7129-3.8086 9.0454-6.50635h1.5869zm130.4443 9.52149q-8.4106 2.22168-18.4082 3.6499-9.8388 1.42822-17.6147 1.42822-27.1363 0-41.2598-14.59961t-14.1235-46.81396v-94.2627h-20.1538V169.7417h20.1538v-50.93994h29.834v50.93994h61.5722v25.07324h-61.5722v80.77393q0 13.96484.6347 21.89941.6348 7.77588 4.4434 14.59961 3.4912 6.34766 9.5215 9.36279 6.1889 2.85645 18.7256 2.85645 7.2998 0 15.2343-2.06299 7.9346-2.22168 11.4258-3.6499h1.5869z"/></svg>