<?xml version="1.0" encoding="UTF-8"?>
<!DOCTYPE svg PUBLIC "-//W3C//DTD SVG 1.1//EN" "http://www.w3.org/Graphics/SVG/1.1/DTD/svg11.dtd">
<svg version="1.1" xmlns="http://www.w3.org/2000/svg" xmlns:xlink="http://www.w3.org/1999/xlink" x="0" y="0" width="800" height="800" viewBox="0, 0, 800, 800">
  <g id="Layer_1">
    <g>
      <path d="M568.942,441.234 C568.942,418.851 540.911,397.639 497.935,384.484 C507.853,340.682 503.445,305.833 484.023,294.676 C479.547,292.059 474.312,290.819 468.596,290.819 L468.596,306.177 C471.764,306.177 474.312,306.797 476.447,307.968 C485.814,313.34 489.877,333.795 486.709,360.104 C485.952,366.578 484.712,373.396 483.197,380.352 C469.698,377.046 454.96,374.498 439.463,372.845 C430.166,360.104 420.524,348.533 410.813,338.409 C433.265,317.541 454.34,306.108 468.665,306.108 L468.665,290.75 C468.665,290.75 468.665,290.75 468.665,290.75 C449.725,290.75 424.932,304.249 399.862,327.665 C374.793,304.387 349.999,291.025 331.06,291.025 L331.06,306.384 C345.316,306.384 366.46,317.748 388.912,338.478 C379.27,348.602 369.628,360.104 360.468,372.845 C344.903,374.498 330.164,377.046 316.665,380.421 C315.081,373.534 313.91,366.853 313.084,360.448 C309.847,334.139 313.842,313.684 323.139,308.243 C325.205,307.004 327.891,306.453 331.06,306.453 L331.06,291.094 C331.06,291.094 331.06,291.094 331.06,291.094 C325.274,291.094 320.04,292.334 315.495,294.951 C296.142,306.108 291.803,340.889 301.789,384.553 C258.951,397.776 231.058,418.92 231.058,441.234 C231.058,463.618 259.089,484.83 302.065,497.985 C292.147,541.787 296.555,576.636 315.977,587.793 C320.453,590.41 325.688,591.65 331.473,591.65 C350.412,591.65 375.206,578.151 400.275,554.735 C425.345,578.013 450.139,591.375 469.078,591.375 C474.863,591.375 480.098,590.135 484.643,587.518 C503.996,576.36 508.335,541.58 498.349,497.916 C541.049,484.761 568.942,463.549 568.942,441.234 z M479.271,395.297 C476.723,404.182 473.555,413.341 469.974,422.501 C467.15,416.992 464.188,411.482 460.951,405.972 C457.783,400.462 454.409,395.09 451.034,389.856 C460.814,391.303 470.249,393.093 479.271,395.297 z M447.728,468.645 C442.356,477.943 436.846,486.759 431.13,494.954 C420.868,495.85 410.468,496.332 400,496.332 C389.6,496.332 379.201,495.85 369.008,495.023 C363.291,486.827 357.713,478.081 352.341,468.852 C347.107,459.83 342.354,450.67 338.016,441.441 C342.286,432.212 347.107,422.983 352.272,413.961 C357.644,404.664 363.154,395.848 368.87,387.652 C379.132,386.757 389.532,386.275 400,386.275 C410.4,386.275 420.799,386.757 430.992,387.583 C436.709,395.779 442.287,404.526 447.659,413.755 C452.893,422.777 457.646,431.937 461.984,441.166 C457.646,450.394 452.893,459.623 447.728,468.645 z M469.974,459.692 C473.693,468.921 476.861,478.15 479.478,487.103 C470.456,489.307 460.951,491.166 451.103,492.613 C454.477,487.31 457.852,481.869 461.02,476.29 C464.188,470.78 467.15,465.202 469.974,459.692 z M400.138,533.178 C393.733,526.566 387.328,519.197 380.991,511.139 C387.19,511.415 393.526,511.621 399.931,511.621 C406.405,511.621 412.81,511.483 419.077,511.139 C412.879,519.197 406.474,526.566 400.138,533.178 z M348.897,492.613 C339.117,491.166 329.682,489.376 320.66,487.172 C323.208,478.287 326.376,469.127 329.958,459.967 C332.781,465.477 335.743,470.987 338.98,476.497 C342.217,482.006 345.523,487.378 348.897,492.613 z M399.793,349.291 C406.198,355.903 412.604,363.272 418.94,371.33 C412.741,371.054 406.405,370.848 400,370.848 C393.526,370.848 387.121,370.985 380.854,371.33 C387.052,363.272 393.457,355.903 399.793,349.291 z M348.828,389.856 C345.454,395.159 342.079,400.6 338.911,406.179 C335.743,411.689 332.781,417.198 329.958,422.708 C326.239,413.479 323.07,404.25 320.453,395.297 C329.475,393.162 338.98,391.303 348.828,389.856 z M286.5,476.083 C262.119,465.684 246.347,452.047 246.347,441.234 C246.347,430.422 262.119,416.716 286.5,406.385 C292.423,403.837 298.896,401.564 305.577,399.429 C309.503,412.928 314.668,426.978 321.073,441.372 C314.737,455.697 309.64,469.678 305.784,483.108 C298.965,480.973 292.491,478.632 286.5,476.083 z M323.553,574.501 C314.186,569.129 310.123,548.674 313.291,522.365 C314.048,515.891 315.288,509.073 316.803,502.117 C330.302,505.423 345.04,507.971 360.537,509.624 C369.834,522.365 379.476,533.936 389.187,544.06 C366.735,564.928 345.66,576.36 331.335,576.36 C328.236,576.292 325.619,575.672 323.553,574.501 z M486.916,522.021 C490.153,548.33 486.158,568.785 476.861,574.225 C474.795,575.465 472.109,576.016 468.94,576.016 C454.684,576.016 433.54,564.652 411.088,543.922 C420.73,533.798 430.372,522.296 439.532,509.555 C455.097,507.902 469.836,505.354 483.335,501.979 C484.919,508.935 486.158,515.616 486.916,522.021 z M513.432,476.083 C507.509,478.632 501.035,480.904 494.354,483.039 C490.428,469.541 485.263,455.491 478.858,441.097 C485.194,426.771 490.291,412.79 494.147,399.361 C500.966,401.496 507.44,403.837 513.5,406.385 C537.881,416.785 553.653,430.422 553.653,441.234 C553.584,452.047 537.812,465.753 513.432,476.083 z" fill="#61DAFB"/>
      <path d="M330.991,291.025 L330.991,291.025 L330.991,291.025 z" fill="#61DAFB"/>
      <path d="M431.405,441.234 C431.405,458.617 417.314,472.709 399.931,472.709 C382.549,472.709 368.457,458.617 368.457,441.234 C368.457,423.852 382.549,409.76 399.931,409.76 C417.314,409.76 431.405,423.852 431.405,441.234 z" fill="#61DAFB"/>
      <path d="M468.527,290.819 L468.527,290.819 L468.527,290.819 z" fill="#61DAFB"/>
    </g>
    <path d="M87.438,109.475 L76.037,109.475 Q75.963,114.425 77.838,118.025 Q79.713,121.625 82.9,123.95 Q86.088,126.275 90.25,127.363 Q94.412,128.45 98.838,128.45 Q104.312,128.45 108.475,127.175 Q112.638,125.9 115.45,123.613 Q118.263,121.325 119.688,118.175 Q121.113,115.025 121.113,111.35 Q121.113,106.85 119.2,103.963 Q117.287,101.075 114.662,99.35 Q112.037,97.625 109.375,96.837 Q106.713,96.05 105.213,95.75 Q100.188,94.475 97.075,93.65 Q93.963,92.825 92.2,92 Q90.438,91.175 89.838,90.2 Q89.238,89.225 89.238,87.65 Q89.238,85.925 89.988,84.8 Q90.738,83.675 91.9,82.925 Q93.062,82.175 94.488,81.875 Q95.912,81.575 97.338,81.575 Q99.513,81.575 101.35,81.95 Q103.188,82.325 104.613,83.225 Q106.037,84.125 106.9,85.7 Q107.763,87.275 107.912,89.675 L119.312,89.675 Q119.312,85.025 117.55,81.763 Q115.787,78.5 112.787,76.4 Q109.787,74.3 105.925,73.362 Q102.062,72.425 97.863,72.425 Q94.263,72.425 90.662,73.4 Q87.062,74.375 84.213,76.4 Q81.363,78.425 79.6,81.462 Q77.838,84.5 77.838,88.625 Q77.838,92.3 79.225,94.888 Q80.613,97.475 82.863,99.2 Q85.113,100.925 87.963,102.012 Q90.812,103.1 93.812,103.85 Q96.738,104.675 99.588,105.35 Q102.438,106.025 104.688,106.925 Q106.938,107.825 108.325,109.175 Q109.713,110.525 109.713,112.7 Q109.713,114.725 108.662,116.037 Q107.613,117.35 106.037,118.1 Q104.463,118.85 102.662,119.113 Q100.863,119.375 99.287,119.375 Q96.963,119.375 94.787,118.812 Q92.613,118.25 91,117.088 Q89.388,115.925 88.412,114.05 Q87.438,112.175 87.438,109.475 z" fill="#61DAFB"/>
    <path d="M163.338,127.25 L163.338,88.475 L152.688,88.475 L152.688,108.8 Q152.688,114.725 150.738,117.312 Q148.788,119.9 144.438,119.9 Q140.613,119.9 139.113,117.537 Q137.613,115.175 137.613,110.375 L137.613,88.475 L126.963,88.475 L126.963,112.325 Q126.963,115.925 127.6,118.887 Q128.238,121.85 129.812,123.912 Q131.388,125.975 134.125,127.1 Q136.863,128.225 141.138,128.225 Q144.513,128.225 147.738,126.725 Q150.963,125.225 152.988,121.85 L153.213,121.85 L153.213,127.25 z" fill="#61DAFB"/>
    <path d="M191.012,120.275 Q188.462,120.275 186.662,119.225 Q184.862,118.175 183.775,116.487 Q182.688,114.8 182.2,112.55 Q181.712,110.3 181.712,107.975 Q181.712,105.575 182.162,103.325 Q182.612,101.075 183.7,99.35 Q184.787,97.625 186.55,96.537 Q188.312,95.45 190.938,95.45 Q193.487,95.45 195.25,96.537 Q197.012,97.625 198.137,99.387 Q199.262,101.15 199.75,103.4 Q200.237,105.65 200.237,107.975 Q200.237,110.3 199.787,112.55 Q199.337,114.8 198.25,116.487 Q197.162,118.175 195.4,119.225 Q193.637,120.275 191.012,120.275 z M171.438,88.475 L171.438,140.825 L182.087,140.825 L182.087,122.45 L182.237,122.45 Q184.188,125.3 187.225,126.762 Q190.262,128.225 193.862,128.225 Q198.137,128.225 201.325,126.575 Q204.512,124.925 206.65,122.15 Q208.787,119.375 209.837,115.775 Q210.887,112.175 210.887,108.275 Q210.887,104.15 209.837,100.362 Q208.787,96.575 206.612,93.725 Q204.438,90.875 201.137,89.15 Q197.837,87.425 193.262,87.425 Q189.662,87.425 186.662,88.85 Q183.662,90.275 181.712,93.425 L181.562,93.425 L181.562,88.475 z" fill="#61DAFB"/>
    <path d="M236.837,120.275 Q234.287,120.275 232.488,119.225 Q230.688,118.175 229.6,116.487 Q228.512,114.8 228.025,112.55 Q227.537,110.3 227.537,107.975 Q227.537,105.575 227.988,103.325 Q228.438,101.075 229.525,99.35 Q230.613,97.625 232.375,96.537 Q234.137,95.45 236.762,95.45 Q239.312,95.45 241.075,96.537 Q242.837,97.625 243.962,99.387 Q245.087,101.15 245.575,103.4 Q246.062,105.65 246.062,107.975 Q246.062,110.3 245.613,112.55 Q245.162,114.8 244.075,116.487 Q242.988,118.175 241.225,119.225 Q239.462,120.275 236.837,120.275 z M217.262,88.475 L217.262,140.825 L227.912,140.825 L227.912,122.45 L228.062,122.45 Q230.012,125.3 233.05,126.762 Q236.087,128.225 239.688,128.225 Q243.962,128.225 247.15,126.575 Q250.337,124.925 252.475,122.15 Q254.613,119.375 255.662,115.775 Q256.712,112.175 256.712,108.275 Q256.712,104.15 255.662,100.362 Q254.613,96.575 252.438,93.725 Q250.262,90.875 246.962,89.15 Q243.662,87.425 239.087,87.425 Q235.488,87.425 232.488,88.85 Q229.488,90.275 227.537,93.425 L227.387,93.425 L227.387,88.475 z" fill="#61DAFB"/>
    <path d="M272.537,107.9 Q272.537,105.575 272.987,103.325 Q273.438,101.075 274.525,99.35 Q275.612,97.625 277.412,96.537 Q279.212,95.45 281.912,95.45 Q284.612,95.45 286.45,96.537 Q288.287,97.625 289.375,99.35 Q290.462,101.075 290.912,103.325 Q291.362,105.575 291.362,107.9 Q291.362,110.225 290.912,112.438 Q290.462,114.65 289.375,116.412 Q288.287,118.175 286.45,119.225 Q284.612,120.275 281.912,120.275 Q279.212,120.275 277.412,119.225 Q275.612,118.175 274.525,116.412 Q273.438,114.65 272.987,112.438 Q272.537,110.225 272.537,107.9 z M261.887,107.9 Q261.887,112.55 263.312,116.3 Q264.737,120.05 267.362,122.713 Q269.987,125.375 273.662,126.8 Q277.337,128.225 281.912,128.225 Q286.487,128.225 290.2,126.8 Q293.912,125.375 296.537,122.713 Q299.162,120.05 300.587,116.3 Q302.012,112.55 302.012,107.9 Q302.012,103.25 300.587,99.462 Q299.162,95.675 296.537,93.012 Q293.912,90.35 290.2,88.887 Q286.487,87.425 281.912,87.425 Q277.337,87.425 273.662,88.887 Q269.987,90.35 267.362,93.012 Q264.737,95.675 263.312,99.462 Q261.887,103.25 261.887,107.9 z" fill="#61DAFB"/>
    <path d="M308.913,88.475 L308.913,127.25 L319.562,127.25 L319.562,109.775 Q319.562,107.15 320.087,104.9 Q320.613,102.65 321.85,100.962 Q323.087,99.275 325.113,98.3 Q327.138,97.325 330.062,97.325 Q331.038,97.325 332.087,97.437 Q333.138,97.55 333.888,97.7 L333.888,87.8 Q332.613,87.425 331.562,87.425 Q329.538,87.425 327.663,88.025 Q325.788,88.625 324.138,89.712 Q322.488,90.8 321.212,92.337 Q319.938,93.875 319.188,95.675 L319.038,95.675 L319.038,88.475 z" fill="#61DAFB"/>
    <path d="M351.587,88.475 L351.587,76.85 L340.938,76.85 L340.938,88.475 L334.487,88.475 L334.487,95.6 L340.938,95.6 L340.938,118.475 Q340.938,121.4 341.913,123.2 Q342.888,125 344.575,125.975 Q346.263,126.95 348.475,127.287 Q350.688,127.625 353.163,127.625 Q354.737,127.625 356.388,127.55 Q358.038,127.475 359.388,127.25 L359.388,119 Q358.638,119.15 357.812,119.225 Q356.987,119.3 356.087,119.3 Q353.388,119.3 352.487,118.4 Q351.587,117.5 351.587,114.8 L351.587,95.6 L359.388,95.6 L359.388,88.475 z" fill="#61DAFB"/>
    <path d="M398.837,88.475 L398.837,76.85 L388.188,76.85 L388.188,88.475 L381.737,88.475 L381.737,95.6 L388.188,95.6 L388.188,118.475 Q388.188,121.4 389.163,123.2 Q390.138,125 391.825,125.975 Q393.513,126.95 395.725,127.287 Q397.938,127.625 400.413,127.625 Q401.987,127.625 403.638,127.55 Q405.288,127.475 406.638,127.25 L406.638,119 Q405.888,119.15 405.062,119.225 Q404.237,119.3 403.337,119.3 Q400.638,119.3 399.737,118.4 Q398.837,117.5 398.837,114.8 L398.837,95.6 L406.638,95.6 L406.638,88.475 z" fill="#61DAFB"/>
    <path d="M411.738,73.7 L411.738,127.25 L422.388,127.25 L422.388,106.925 Q422.388,101 424.338,98.412 Q426.288,95.825 430.638,95.825 Q434.463,95.825 435.963,98.187 Q437.463,100.55 437.463,105.35 L437.463,127.25 L448.113,127.25 L448.113,103.4 Q448.113,99.8 447.475,96.837 Q446.838,93.875 445.263,91.812 Q443.688,89.75 440.95,88.587 Q438.213,87.425 433.938,87.425 Q430.938,87.425 427.788,88.962 Q424.638,90.5 422.613,93.875 L422.388,93.875 L422.388,73.7 z" fill="#61DAFB"/>
    <path d="M482.312,103.7 L464.988,103.7 Q465.062,102.575 465.475,101.15 Q465.888,99.725 466.9,98.45 Q467.913,97.175 469.6,96.312 Q471.288,95.45 473.838,95.45 Q477.738,95.45 479.65,97.55 Q481.562,99.65 482.312,103.7 z M464.988,110.45 L492.963,110.45 Q493.263,105.95 492.213,101.825 Q491.163,97.7 488.8,94.475 Q486.438,91.25 482.763,89.337 Q479.088,87.425 474.138,87.425 Q469.713,87.425 466.075,89 Q462.438,90.575 459.812,93.312 Q457.188,96.05 455.763,99.8 Q454.338,103.55 454.338,107.9 Q454.338,112.4 455.725,116.15 Q457.113,119.9 459.663,122.6 Q462.213,125.3 465.888,126.762 Q469.562,128.225 474.138,128.225 Q480.738,128.225 485.388,125.225 Q490.038,122.225 492.288,115.25 L482.913,115.25 Q482.388,117.05 480.062,118.662 Q477.738,120.275 474.513,120.275 Q470.013,120.275 467.613,117.95 Q465.213,115.625 464.988,110.45 z" fill="#61DAFB"/>
    <path d="M533.013,97.925 L533.013,82.85 L545.913,82.85 Q549.963,82.85 551.987,84.612 Q554.013,86.375 554.013,90.275 Q554.013,94.325 551.987,96.125 Q549.963,97.925 545.913,97.925 z M521.237,73.7 L521.237,127.25 L533.013,127.25 L533.013,106.325 L544.788,106.325 Q549.213,106.325 551.163,108.275 Q553.112,110.225 553.713,114.425 Q554.163,117.65 554.388,121.175 Q554.612,124.7 555.588,127.25 L567.362,127.25 Q566.538,126.125 566.125,124.512 Q565.713,122.9 565.525,121.1 Q565.338,119.3 565.263,117.575 Q565.188,115.85 565.112,114.575 Q564.963,112.55 564.55,110.525 Q564.138,108.5 563.237,106.812 Q562.338,105.125 560.913,103.887 Q559.487,102.65 557.312,102.05 L557.312,101.9 Q561.812,100.1 563.8,96.65 Q565.788,93.2 565.788,88.475 Q565.788,85.4 564.7,82.737 Q563.612,80.075 561.55,78.05 Q559.487,76.025 556.6,74.862 Q553.713,73.7 550.112,73.7 z" fill="#61DAFB"/>
    <path d="M600.363,103.7 L583.038,103.7 Q583.113,102.575 583.525,101.15 Q583.938,99.725 584.95,98.45 Q585.963,97.175 587.65,96.312 Q589.338,95.45 591.888,95.45 Q595.788,95.45 597.7,97.55 Q599.613,99.65 600.363,103.7 z M583.038,110.45 L611.013,110.45 Q611.312,105.95 610.263,101.825 Q609.213,97.7 606.85,94.475 Q604.488,91.25 600.812,89.337 Q597.138,87.425 592.188,87.425 Q587.763,87.425 584.125,89 Q580.488,90.575 577.863,93.312 Q575.238,96.05 573.812,99.8 Q572.388,103.55 572.388,107.9 Q572.388,112.4 573.775,116.15 Q575.163,119.9 577.713,122.6 Q580.263,125.3 583.938,126.762 Q587.613,128.225 592.188,128.225 Q598.788,128.225 603.438,125.225 Q608.088,122.225 610.338,115.25 L600.963,115.25 Q600.438,117.05 598.113,118.662 Q595.788,120.275 592.562,120.275 Q588.062,120.275 585.663,117.95 Q583.263,115.625 583.038,110.45 z" fill="#61DAFB"/>
    <path d="M616.862,100.4 Q617.088,96.65 618.737,94.175 Q620.388,91.7 622.938,90.2 Q625.487,88.7 628.675,88.062 Q631.862,87.425 635.088,87.425 Q638.013,87.425 641.013,87.837 Q644.013,88.25 646.487,89.45 Q648.963,90.65 650.537,92.787 Q652.112,94.925 652.112,98.45 L652.112,118.625 Q652.112,121.25 652.412,123.65 Q652.713,126.05 653.463,127.25 L642.662,127.25 Q642.362,126.35 642.175,125.412 Q641.987,124.475 641.912,123.5 Q639.362,126.125 635.912,127.175 Q632.463,128.225 628.862,128.225 Q626.088,128.225 623.688,127.55 Q621.287,126.875 619.487,125.45 Q617.688,124.025 616.675,121.85 Q615.662,119.675 615.662,116.675 Q615.662,113.375 616.825,111.237 Q617.987,109.1 619.825,107.825 Q621.662,106.55 624.025,105.912 Q626.388,105.275 628.787,104.9 Q631.188,104.525 633.513,104.3 Q635.838,104.075 637.638,103.625 Q639.438,103.175 640.487,102.312 Q641.537,101.45 641.463,99.8 Q641.463,98.075 640.9,97.062 Q640.338,96.05 639.4,95.487 Q638.463,94.925 637.225,94.737 Q635.987,94.55 634.562,94.55 Q631.412,94.55 629.612,95.9 Q627.812,97.25 627.513,100.4 z M641.463,108.275 Q640.787,108.875 639.775,109.213 Q638.763,109.55 637.6,109.775 Q636.438,110 635.162,110.15 Q633.888,110.3 632.612,110.525 Q631.412,110.75 630.25,111.125 Q629.088,111.5 628.225,112.137 Q627.362,112.775 626.838,113.75 Q626.312,114.725 626.312,116.225 Q626.312,117.65 626.838,118.625 Q627.362,119.6 628.263,120.162 Q629.162,120.725 630.362,120.95 Q631.562,121.175 632.838,121.175 Q635.987,121.175 637.713,120.125 Q639.438,119.075 640.263,117.612 Q641.088,116.15 641.275,114.65 Q641.463,113.15 641.463,112.25 z" fill="#61DAFB"/>
    <path d="M686.763,102.125 L697.188,102.125 Q696.963,98.375 695.388,95.637 Q693.812,92.9 691.3,91.062 Q688.788,89.225 685.6,88.325 Q682.413,87.425 678.963,87.425 Q674.237,87.425 670.562,89 Q666.888,90.575 664.338,93.387 Q661.788,96.2 660.475,100.062 Q659.163,103.925 659.163,108.425 Q659.163,112.775 660.588,116.412 Q662.013,120.05 664.562,122.675 Q667.112,125.3 670.75,126.762 Q674.388,128.225 678.737,128.225 Q686.463,128.225 691.413,124.175 Q696.362,120.125 697.413,112.4 L687.138,112.4 Q686.612,116 684.55,118.137 Q682.487,120.275 678.663,120.275 Q676.188,120.275 674.463,119.15 Q672.737,118.025 671.725,116.262 Q670.713,114.5 670.263,112.325 Q669.812,110.15 669.812,108.05 Q669.812,105.875 670.263,103.662 Q670.713,101.45 671.8,99.612 Q672.888,97.775 674.612,96.612 Q676.338,95.45 678.888,95.45 Q685.713,95.45 686.763,102.125 z" fill="#61DAFB"/>
    <path d="M716.912,88.475 L716.912,76.85 L706.263,76.85 L706.263,88.475 L699.812,88.475 L699.812,95.6 L706.263,95.6 L706.263,118.475 Q706.263,121.4 707.237,123.2 Q708.212,125 709.9,125.975 Q711.587,126.95 713.8,127.287 Q716.013,127.625 718.487,127.625 Q720.062,127.625 721.712,127.55 Q723.362,127.475 724.712,127.25 L724.712,119 Q723.962,119.15 723.138,119.225 Q722.312,119.3 721.412,119.3 Q718.712,119.3 717.812,118.4 Q716.912,117.5 716.912,114.8 L716.912,95.6 L724.712,95.6 L724.712,88.475 z" fill="#61DAFB"/>
    <path d="M208,164.7 L208,218.25 L248.65,218.25 L248.65,208.35 L219.775,208.35 L219.775,195.225 L245.725,195.225 L245.725,186.075 L219.775,186.075 L219.775,174.6 L248.05,174.6 L248.05,164.7 z" fill="#61DAFB"/>
    <path d="M281.875,193.125 L292.3,193.125 Q292.075,189.375 290.5,186.637 Q288.925,183.9 286.413,182.062 Q283.9,180.225 280.712,179.325 Q277.525,178.425 274.075,178.425 Q269.35,178.425 265.675,180 Q262,181.575 259.45,184.387 Q256.9,187.2 255.587,191.062 Q254.275,194.925 254.275,199.425 Q254.275,203.775 255.7,207.413 Q257.125,211.05 259.675,213.675 Q262.225,216.3 265.862,217.762 Q269.5,219.225 273.85,219.225 Q281.575,219.225 286.525,215.175 Q291.475,211.125 292.525,203.4 L282.25,203.4 Q281.725,207 279.663,209.137 Q277.6,211.275 273.775,211.275 Q271.3,211.275 269.575,210.15 Q267.85,209.025 266.837,207.262 Q265.825,205.5 265.375,203.325 Q264.925,201.15 264.925,199.05 Q264.925,196.875 265.375,194.663 Q265.825,192.45 266.913,190.613 Q268,188.775 269.725,187.613 Q271.45,186.45 274,186.45 Q280.825,186.45 281.875,193.125 z" fill="#61DAFB"/>
    <path d="M307.975,198.9 Q307.975,196.575 308.425,194.325 Q308.875,192.075 309.962,190.35 Q311.05,188.625 312.85,187.538 Q314.65,186.45 317.35,186.45 Q320.05,186.45 321.887,187.538 Q323.725,188.625 324.812,190.35 Q325.9,192.075 326.35,194.325 Q326.8,196.575 326.8,198.9 Q326.8,201.225 326.35,203.438 Q325.9,205.65 324.812,207.413 Q323.725,209.175 321.887,210.225 Q320.05,211.275 317.35,211.275 Q314.65,211.275 312.85,210.225 Q311.05,209.175 309.962,207.413 Q308.875,205.65 308.425,203.438 Q307.975,201.225 307.975,198.9 z M297.325,198.9 Q297.325,203.55 298.75,207.3 Q300.175,211.05 302.8,213.712 Q305.425,216.375 309.1,217.8 Q312.775,219.225 317.35,219.225 Q321.925,219.225 325.637,217.8 Q329.35,216.375 331.975,213.712 Q334.6,211.05 336.025,207.3 Q337.45,203.55 337.45,198.9 Q337.45,194.25 336.025,190.462 Q334.6,186.675 331.975,184.012 Q329.35,181.35 325.637,179.887 Q321.925,178.425 317.35,178.425 Q312.775,178.425 309.1,179.887 Q305.425,181.35 302.8,184.012 Q300.175,186.675 298.75,190.462 Q297.325,194.25 297.325,198.9 z" fill="#61DAFB"/>
    <path d="M352.6,205.65 L342.475,205.65 Q342.625,209.55 344.237,212.137 Q345.85,214.725 348.362,216.3 Q350.875,217.875 354.1,218.55 Q357.325,219.225 360.7,219.225 Q364,219.225 367.188,218.587 Q370.375,217.95 372.85,216.375 Q375.325,214.8 376.862,212.212 Q378.4,209.625 378.4,205.8 Q378.4,203.1 377.35,201.262 Q376.3,199.425 374.575,198.188 Q372.85,196.95 370.638,196.2 Q368.425,195.45 366.1,194.925 Q363.85,194.4 361.675,193.95 Q359.5,193.5 357.812,192.938 Q356.125,192.375 355.075,191.475 Q354.025,190.575 354.025,189.15 Q354.025,187.95 354.625,187.238 Q355.225,186.525 356.087,186.15 Q356.95,185.775 358,185.663 Q359.05,185.55 359.95,185.55 Q362.8,185.55 364.9,186.637 Q367,187.725 367.225,190.8 L377.35,190.8 Q377.05,187.2 375.513,184.837 Q373.975,182.475 371.65,181.05 Q369.325,179.625 366.362,179.025 Q363.4,178.425 360.25,178.425 Q357.1,178.425 354.1,178.988 Q351.1,179.55 348.7,180.938 Q346.3,182.325 344.837,184.725 Q343.375,187.125 343.375,190.875 Q343.375,193.425 344.425,195.188 Q345.475,196.95 347.2,198.113 Q348.925,199.275 351.138,199.988 Q353.35,200.7 355.675,201.225 Q361.375,202.425 364.562,203.625 Q367.75,204.825 367.75,207.225 Q367.75,208.65 367.075,209.587 Q366.4,210.525 365.388,211.087 Q364.375,211.65 363.138,211.913 Q361.9,212.175 360.775,212.175 Q359.2,212.175 357.737,211.8 Q356.275,211.425 355.15,210.637 Q354.025,209.85 353.312,208.613 Q352.6,207.375 352.6,205.65 z" fill="#61DAFB"/>
    <path d="M403.75,223.05 L419.95,179.475 L408.925,179.475 L400.45,206.025 L400.3,206.025 L391.525,179.475 L380.2,179.475 L393.775,215.85 Q394.225,216.975 394.225,218.25 Q394.225,219.975 393.212,221.4 Q392.2,222.825 390.1,223.05 Q388.525,223.125 386.95,222.975 Q385.375,222.825 383.875,222.675 L383.875,231.45 Q385.525,231.6 387.137,231.713 Q388.75,231.825 390.4,231.825 Q395.875,231.825 398.95,229.8 Q402.025,227.775 403.75,223.05 z" fill="#61DAFB"/>
    <path d="M431.8,205.65 L421.675,205.65 Q421.825,209.55 423.438,212.137 Q425.05,214.725 427.562,216.3 Q430.075,217.875 433.3,218.55 Q436.525,219.225 439.9,219.225 Q443.2,219.225 446.387,218.587 Q449.575,217.95 452.05,216.375 Q454.525,214.8 456.062,212.212 Q457.6,209.625 457.6,205.8 Q457.6,203.1 456.55,201.262 Q455.5,199.425 453.775,198.188 Q452.05,196.95 449.837,196.2 Q447.625,195.45 445.3,194.925 Q443.05,194.4 440.875,193.95 Q438.7,193.5 437.012,192.938 Q435.325,192.375 434.275,191.475 Q433.225,190.575 433.225,189.15 Q433.225,187.95 433.825,187.238 Q434.425,186.525 435.287,186.15 Q436.15,185.775 437.2,185.663 Q438.25,185.55 439.15,185.55 Q442,185.55 444.1,186.637 Q446.2,187.725 446.425,190.8 L456.55,190.8 Q456.25,187.2 454.712,184.837 Q453.175,182.475 450.85,181.05 Q448.525,179.625 445.562,179.025 Q442.6,178.425 439.45,178.425 Q436.3,178.425 433.3,178.988 Q430.3,179.55 427.9,180.938 Q425.5,182.325 424.037,184.725 Q422.575,187.125 422.575,190.875 Q422.575,193.425 423.625,195.188 Q424.675,196.95 426.4,198.113 Q428.125,199.275 430.337,199.988 Q432.55,200.7 434.875,201.225 Q440.575,202.425 443.762,203.625 Q446.95,204.825 446.95,207.225 Q446.95,208.65 446.275,209.587 Q445.6,210.525 444.587,211.087 Q443.575,211.65 442.337,211.913 Q441.1,212.175 439.975,212.175 Q438.4,212.175 436.938,211.8 Q435.475,211.425 434.35,210.637 Q433.225,209.85 432.512,208.613 Q431.8,207.375 431.8,205.65 z" fill="#61DAFB"/>
    <path d="M477.325,179.475 L477.325,167.85 L466.675,167.85 L466.675,179.475 L460.225,179.475 L460.225,186.6 L466.675,186.6 L466.675,209.475 Q466.675,212.4 467.65,214.2 Q468.625,216 470.312,216.975 Q472,217.95 474.213,218.287 Q476.425,218.625 478.9,218.625 Q480.475,218.625 482.125,218.55 Q483.775,218.475 485.125,218.25 L485.125,210 Q484.375,210.15 483.55,210.225 Q482.725,210.3 481.825,210.3 Q479.125,210.3 478.225,209.4 Q477.325,208.5 477.325,205.8 L477.325,186.6 L485.125,186.6 L485.125,179.475 z" fill="#61DAFB"/>
    <path d="M516.325,194.7 L499,194.7 Q499.075,193.575 499.487,192.15 Q499.9,190.725 500.913,189.45 Q501.925,188.175 503.612,187.312 Q505.3,186.45 507.85,186.45 Q511.75,186.45 513.662,188.55 Q515.575,190.65 516.325,194.7 z M499,201.45 L526.975,201.45 Q527.275,196.95 526.225,192.825 Q525.175,188.7 522.812,185.475 Q520.45,182.25 516.775,180.337 Q513.1,178.425 508.15,178.425 Q503.725,178.425 500.087,180 Q496.45,181.575 493.825,184.312 Q491.2,187.05 489.775,190.8 Q488.35,194.55 488.35,198.9 Q488.35,203.4 489.737,207.15 Q491.125,210.9 493.675,213.6 Q496.225,216.3 499.9,217.762 Q503.575,219.225 508.15,219.225 Q514.75,219.225 519.4,216.225 Q524.05,213.225 526.3,206.25 L516.925,206.25 Q516.4,208.05 514.075,209.663 Q511.75,211.275 508.525,211.275 Q504.025,211.275 501.625,208.95 Q499.225,206.625 499,201.45 z" fill="#61DAFB"/>
    <path d="M533.575,179.475 L533.575,218.25 L544.225,218.25 L544.225,195.75 Q544.225,192.9 545.05,191.137 Q545.875,189.375 547.037,188.438 Q548.2,187.5 549.438,187.163 Q550.675,186.825 551.425,186.825 Q553.975,186.825 555.287,187.688 Q556.6,188.55 557.162,189.975 Q557.725,191.4 557.8,193.088 Q557.875,194.775 557.875,196.5 L557.875,218.25 L568.525,218.25 L568.525,196.65 Q568.525,194.85 568.787,193.088 Q569.05,191.325 569.837,189.938 Q570.625,188.55 572.013,187.688 Q573.4,186.825 575.65,186.825 Q577.9,186.825 579.212,187.575 Q580.525,188.325 581.2,189.6 Q581.875,190.875 582.025,192.6 Q582.175,194.325 582.175,196.275 L582.175,218.25 L592.825,218.25 L592.825,192.3 Q592.825,188.55 591.775,185.887 Q590.725,183.225 588.85,181.575 Q586.975,179.925 584.35,179.175 Q581.725,178.425 578.65,178.425 Q574.6,178.425 571.638,180.375 Q568.675,182.325 566.95,184.875 Q565.375,181.275 562.337,179.85 Q559.3,178.425 555.625,178.425 Q551.8,178.425 548.837,180.075 Q545.875,181.725 543.775,184.725 L543.625,184.725 L543.625,179.475 z" fill="#61DAFB"/>
    <path d="M78.212,686.875 L78.212,674.35 L89.237,674.35 Q90.812,674.35 92.275,674.613 Q93.737,674.875 94.862,675.55 Q95.987,676.225 96.662,677.425 Q97.337,678.625 97.337,680.5 Q97.337,683.875 95.312,685.375 Q93.287,686.875 90.137,686.875 z M66.438,665.2 L66.438,718.75 L92.387,718.75 Q95.987,718.75 99.4,717.85 Q102.812,716.95 105.475,715.075 Q108.137,713.2 109.712,710.238 Q111.287,707.275 111.287,703.225 Q111.287,698.2 108.85,694.638 Q106.412,691.075 101.462,689.65 Q105.062,687.925 106.9,685.225 Q108.737,682.525 108.737,678.475 Q108.737,674.725 107.5,672.175 Q106.262,669.625 104.012,668.088 Q101.762,666.55 98.612,665.875 Q95.462,665.2 91.637,665.2 z M78.212,709.6 L78.212,694.9 L91.037,694.9 Q94.862,694.9 97.188,696.663 Q99.512,698.425 99.512,702.55 Q99.512,704.65 98.8,706 Q98.087,707.35 96.887,708.138 Q95.688,708.925 94.112,709.263 Q92.537,709.6 90.812,709.6 z" fill="#61DAFB"/>
    <path d="M144.213,695.2 L126.888,695.2 Q126.963,694.075 127.375,692.65 Q127.788,691.225 128.8,689.95 Q129.812,688.675 131.5,687.812 Q133.188,686.95 135.738,686.95 Q139.637,686.95 141.55,689.05 Q143.463,691.15 144.213,695.2 z M126.888,701.95 L154.863,701.95 Q155.163,697.45 154.113,693.325 Q153.062,689.2 150.7,685.975 Q148.338,682.75 144.663,680.837 Q140.988,678.925 136.038,678.925 Q131.613,678.925 127.975,680.5 Q124.338,682.075 121.713,684.812 Q119.088,687.55 117.663,691.3 Q116.238,695.05 116.238,699.4 Q116.238,703.9 117.625,707.65 Q119.013,711.4 121.562,714.1 Q124.113,716.8 127.788,718.263 Q131.463,719.725 136.038,719.725 Q142.637,719.725 147.288,716.725 Q151.938,713.725 154.188,706.75 L144.812,706.75 Q144.288,708.55 141.963,710.162 Q139.637,711.775 136.413,711.775 Q131.913,711.775 129.512,709.45 Q127.113,707.125 126.888,701.95 z" fill="#61DAFB"/>
    <path d="M187.562,693.625 L197.987,693.625 Q197.762,689.875 196.188,687.138 Q194.612,684.4 192.1,682.562 Q189.587,680.725 186.4,679.825 Q183.212,678.925 179.762,678.925 Q175.037,678.925 171.362,680.5 Q167.688,682.075 165.137,684.888 Q162.587,687.7 161.275,691.562 Q159.962,695.425 159.962,699.925 Q159.962,704.275 161.387,707.912 Q162.812,711.55 165.362,714.175 Q167.912,716.8 171.55,718.263 Q175.188,719.725 179.537,719.725 Q187.262,719.725 192.212,715.675 Q197.162,711.625 198.212,703.9 L187.938,703.9 Q187.412,707.5 185.35,709.638 Q183.287,711.775 179.462,711.775 Q176.987,711.775 175.262,710.65 Q173.537,709.525 172.525,707.763 Q171.512,706 171.062,703.825 Q170.612,701.65 170.612,699.55 Q170.612,697.375 171.062,695.162 Q171.512,692.95 172.6,691.112 Q173.688,689.275 175.412,688.112 Q177.137,686.95 179.688,686.95 Q186.512,686.95 187.562,693.625 z" fill="#61DAFB"/>
    <path d="M213.663,699.4 Q213.663,697.075 214.113,694.825 Q214.562,692.575 215.65,690.85 Q216.738,689.125 218.538,688.037 Q220.338,686.95 223.038,686.95 Q225.738,686.95 227.575,688.037 Q229.413,689.125 230.5,690.85 Q231.588,692.575 232.038,694.825 Q232.488,697.075 232.488,699.4 Q232.488,701.725 232.038,703.938 Q231.588,706.15 230.5,707.912 Q229.413,709.675 227.575,710.725 Q225.738,711.775 223.038,711.775 Q220.338,711.775 218.538,710.725 Q216.738,709.675 215.65,707.912 Q214.562,706.15 214.113,703.938 Q213.663,701.725 213.663,699.4 z M203.012,699.4 Q203.012,704.05 204.438,707.8 Q205.863,711.55 208.488,714.212 Q211.113,716.875 214.788,718.3 Q218.463,719.725 223.038,719.725 Q227.613,719.725 231.325,718.3 Q235.038,716.875 237.663,714.212 Q240.288,711.55 241.713,707.8 Q243.137,704.05 243.137,699.4 Q243.137,694.75 241.713,690.962 Q240.288,687.175 237.663,684.513 Q235.038,681.85 231.325,680.388 Q227.613,678.925 223.038,678.925 Q218.463,678.925 214.788,680.388 Q211.113,681.85 208.488,684.513 Q205.863,687.175 204.438,690.962 Q203.012,694.75 203.012,699.4 z" fill="#61DAFB"/>
    <path d="M250.338,679.975 L250.338,718.75 L260.988,718.75 L260.988,696.25 Q260.988,693.4 261.812,691.637 Q262.638,689.875 263.8,688.938 Q264.962,688 266.2,687.662 Q267.438,687.325 268.188,687.325 Q270.738,687.325 272.05,688.188 Q273.363,689.05 273.925,690.475 Q274.488,691.9 274.562,693.587 Q274.638,695.275 274.638,697 L274.638,718.75 L285.288,718.75 L285.288,697.15 Q285.288,695.35 285.55,693.587 Q285.812,691.825 286.6,690.438 Q287.388,689.05 288.775,688.188 Q290.163,687.325 292.413,687.325 Q294.663,687.325 295.975,688.075 Q297.288,688.825 297.962,690.1 Q298.638,691.375 298.788,693.1 Q298.938,694.825 298.938,696.775 L298.938,718.75 L309.587,718.75 L309.587,692.8 Q309.587,689.05 308.538,686.387 Q307.488,683.725 305.613,682.075 Q303.738,680.425 301.113,679.675 Q298.488,678.925 295.413,678.925 Q291.363,678.925 288.4,680.875 Q285.438,682.825 283.712,685.375 Q282.138,681.775 279.1,680.35 Q276.062,678.925 272.388,678.925 Q268.562,678.925 265.6,680.575 Q262.638,682.225 260.538,685.225 L260.388,685.225 L260.388,679.975 z" fill="#61DAFB"/>
    <path d="M344.087,695.2 L326.762,695.2 Q326.837,694.075 327.25,692.65 Q327.662,691.225 328.675,689.95 Q329.688,688.675 331.375,687.812 Q333.062,686.95 335.612,686.95 Q339.512,686.95 341.425,689.05 Q343.337,691.15 344.087,695.2 z M326.762,701.95 L354.737,701.95 Q355.037,697.45 353.987,693.325 Q352.938,689.2 350.575,685.975 Q348.212,682.75 344.537,680.837 Q340.862,678.925 335.912,678.925 Q331.487,678.925 327.85,680.5 Q324.212,682.075 321.587,684.812 Q318.962,687.55 317.537,691.3 Q316.112,695.05 316.112,699.4 Q316.112,703.9 317.5,707.65 Q318.887,711.4 321.438,714.1 Q323.987,716.8 327.662,718.263 Q331.337,719.725 335.912,719.725 Q342.512,719.725 347.162,716.725 Q351.812,713.725 354.062,706.75 L344.688,706.75 Q344.162,708.55 341.837,710.162 Q339.512,711.775 336.287,711.775 Q331.787,711.775 329.387,709.45 Q326.987,707.125 326.762,701.95 z" fill="#61DAFB"/>
    <path d="M381.438,691.9 Q381.662,688.15 383.312,685.675 Q384.962,683.2 387.512,681.7 Q390.062,680.2 393.25,679.562 Q396.438,678.925 399.662,678.925 Q402.587,678.925 405.587,679.337 Q408.587,679.75 411.062,680.95 Q413.537,682.15 415.112,684.287 Q416.688,686.425 416.688,689.95 L416.688,710.125 Q416.688,712.75 416.987,715.15 Q417.287,717.55 418.037,718.75 L407.237,718.75 Q406.938,717.85 406.75,716.912 Q406.562,715.975 406.487,715 Q403.938,717.625 400.487,718.675 Q397.037,719.725 393.438,719.725 Q390.662,719.725 388.262,719.05 Q385.862,718.375 384.062,716.95 Q382.262,715.525 381.25,713.35 Q380.237,711.175 380.237,708.175 Q380.237,704.875 381.4,702.737 Q382.562,700.6 384.4,699.325 Q386.237,698.05 388.6,697.412 Q390.962,696.775 393.362,696.4 Q395.762,696.025 398.087,695.8 Q400.412,695.575 402.212,695.125 Q404.012,694.675 405.062,693.812 Q406.112,692.95 406.037,691.3 Q406.037,689.575 405.475,688.562 Q404.912,687.55 403.975,686.987 Q403.037,686.425 401.8,686.237 Q400.562,686.05 399.137,686.05 Q395.987,686.05 394.188,687.4 Q392.387,688.75 392.087,691.9 z M406.037,699.775 Q405.362,700.375 404.35,700.712 Q403.337,701.05 402.175,701.275 Q401.012,701.5 399.737,701.65 Q398.462,701.8 397.188,702.025 Q395.987,702.25 394.825,702.625 Q393.662,703 392.8,703.638 Q391.938,704.275 391.412,705.25 Q390.887,706.225 390.887,707.725 Q390.887,709.15 391.412,710.125 Q391.938,711.1 392.837,711.662 Q393.737,712.225 394.938,712.45 Q396.137,712.675 397.412,712.675 Q400.562,712.675 402.287,711.625 Q404.012,710.575 404.837,709.112 Q405.662,707.65 405.85,706.15 Q406.037,704.65 406.037,703.75 z" fill="#61DAFB"/>
    <path d="M446.087,679.975 L446.087,718.75 L456.738,718.75 L456.738,696.25 Q456.738,693.4 457.562,691.637 Q458.388,689.875 459.55,688.938 Q460.712,688 461.95,687.662 Q463.188,687.325 463.938,687.325 Q466.488,687.325 467.8,688.188 Q469.113,689.05 469.675,690.475 Q470.238,691.9 470.312,693.587 Q470.388,695.275 470.388,697 L470.388,718.75 L481.038,718.75 L481.038,697.15 Q481.038,695.35 481.3,693.587 Q481.562,691.825 482.35,690.438 Q483.138,689.05 484.525,688.188 Q485.913,687.325 488.163,687.325 Q490.413,687.325 491.725,688.075 Q493.038,688.825 493.712,690.1 Q494.388,691.375 494.538,693.1 Q494.688,694.825 494.688,696.775 L494.688,718.75 L505.337,718.75 L505.337,692.8 Q505.337,689.05 504.288,686.387 Q503.238,683.725 501.363,682.075 Q499.488,680.425 496.863,679.675 Q494.238,678.925 491.163,678.925 Q487.113,678.925 484.15,680.875 Q481.188,682.825 479.462,685.375 Q477.888,681.775 474.85,680.35 Q471.812,678.925 468.138,678.925 Q464.312,678.925 461.35,680.575 Q458.388,682.225 456.288,685.225 L456.138,685.225 L456.138,679.975 z" fill="#61DAFB"/>
    <path d="M539.837,695.2 L522.513,695.2 Q522.587,694.075 523,692.65 Q523.412,691.225 524.425,689.95 Q525.438,688.675 527.125,687.812 Q528.812,686.95 531.362,686.95 Q535.263,686.95 537.175,689.05 Q539.087,691.15 539.837,695.2 z M522.513,701.95 L550.487,701.95 Q550.787,697.45 549.737,693.325 Q548.688,689.2 546.325,685.975 Q543.962,682.75 540.287,680.837 Q536.612,678.925 531.662,678.925 Q527.237,678.925 523.6,680.5 Q519.962,682.075 517.337,684.812 Q514.712,687.55 513.287,691.3 Q511.862,695.05 511.862,699.4 Q511.862,703.9 513.25,707.65 Q514.638,711.4 517.188,714.1 Q519.737,716.8 523.412,718.263 Q527.087,719.725 531.662,719.725 Q538.263,719.725 542.912,716.725 Q547.562,713.725 549.812,706.75 L540.438,706.75 Q539.912,708.55 537.587,710.162 Q535.263,711.775 532.037,711.775 Q527.537,711.775 525.138,709.45 Q522.737,707.125 522.513,701.95 z" fill="#61DAFB"/>
    <path d="M557.087,679.975 L557.087,718.75 L567.737,718.75 L567.737,696.25 Q567.737,693.4 568.562,691.637 Q569.387,689.875 570.55,688.938 Q571.712,688 572.95,687.662 Q574.188,687.325 574.938,687.325 Q577.487,687.325 578.8,688.188 Q580.112,689.05 580.675,690.475 Q581.237,691.9 581.312,693.587 Q581.387,695.275 581.387,697 L581.387,718.75 L592.037,718.75 L592.037,697.15 Q592.037,695.35 592.3,693.587 Q592.562,691.825 593.35,690.438 Q594.137,689.05 595.525,688.188 Q596.912,687.325 599.162,687.325 Q601.412,687.325 602.725,688.075 Q604.037,688.825 604.712,690.1 Q605.387,691.375 605.537,693.1 Q605.688,694.825 605.688,696.775 L605.688,718.75 L616.337,718.75 L616.337,692.8 Q616.337,689.05 615.287,686.387 Q614.237,683.725 612.362,682.075 Q610.487,680.425 607.862,679.675 Q605.237,678.925 602.162,678.925 Q598.112,678.925 595.15,680.875 Q592.188,682.825 590.462,685.375 Q588.887,681.775 585.85,680.35 Q582.812,678.925 579.137,678.925 Q575.312,678.925 572.35,680.575 Q569.387,682.225 567.287,685.225 L567.137,685.225 L567.137,679.975 z" fill="#61DAFB"/>
    <path d="M653.162,699.4 Q653.162,701.8 652.637,704.05 Q652.112,706.3 650.987,708.025 Q649.862,709.75 648.175,710.762 Q646.487,711.775 644.087,711.775 Q641.762,711.775 640.037,710.762 Q638.312,709.75 637.188,708.025 Q636.062,706.3 635.537,704.05 Q635.012,701.8 635.012,699.4 Q635.012,696.925 635.537,694.675 Q636.062,692.425 637.188,690.7 Q638.312,688.975 640.037,687.962 Q641.762,686.95 644.087,686.95 Q646.487,686.95 648.175,687.962 Q649.862,688.975 650.987,690.7 Q652.112,692.425 652.637,694.675 Q653.162,696.925 653.162,699.4 z M624.737,665.2 L624.737,718.75 L634.862,718.75 L634.862,713.8 L635.012,713.8 Q636.737,717.025 640.112,718.375 Q643.487,719.725 647.762,719.725 Q650.688,719.725 653.537,718.525 Q656.387,717.325 658.675,714.85 Q660.962,712.375 662.387,708.512 Q663.812,704.65 663.812,699.325 Q663.812,694 662.387,690.137 Q660.962,686.275 658.675,683.8 Q656.387,681.325 653.537,680.125 Q650.688,678.925 647.762,678.925 Q644.162,678.925 640.825,680.312 Q637.487,681.7 635.537,684.7 L635.387,684.7 L635.387,665.2 z" fill="#61DAFB"/>
    <path d="M696.662,695.2 L679.337,695.2 Q679.412,694.075 679.825,692.65 Q680.237,691.225 681.25,689.95 Q682.262,688.675 683.95,687.812 Q685.637,686.95 688.188,686.95 Q692.087,686.95 694,689.05 Q695.912,691.15 696.662,695.2 z M679.337,701.95 L707.312,701.95 Q707.612,697.45 706.562,693.325 Q705.512,689.2 703.15,685.975 Q700.787,682.75 697.112,680.837 Q693.438,678.925 688.487,678.925 Q684.062,678.925 680.425,680.5 Q676.787,682.075 674.162,684.812 Q671.537,687.55 670.112,691.3 Q668.688,695.05 668.688,699.4 Q668.688,703.9 670.075,707.65 Q671.462,711.4 674.012,714.1 Q676.562,716.8 680.237,718.263 Q683.912,719.725 688.487,719.725 Q695.087,719.725 699.737,716.725 Q704.387,713.725 706.637,706.75 L697.262,706.75 Q696.737,708.55 694.412,710.162 Q692.087,711.775 688.862,711.775 Q684.362,711.775 681.962,709.45 Q679.562,707.125 679.337,701.95 z" fill="#61DAFB"/>
    <path d="M713.613,679.975 L713.613,718.75 L724.263,718.75 L724.263,701.275 Q724.263,698.65 724.788,696.4 Q725.312,694.15 726.55,692.462 Q727.788,690.775 729.812,689.8 Q731.838,688.825 734.763,688.825 Q735.738,688.825 736.788,688.938 Q737.838,689.05 738.588,689.2 L738.588,679.3 Q737.312,678.925 736.263,678.925 Q734.238,678.925 732.363,679.525 Q730.488,680.125 728.838,681.212 Q727.188,682.3 725.913,683.837 Q724.638,685.375 723.888,687.175 L723.738,687.175 L723.738,679.975 z" fill="#61DAFB"/>
  </g>
</svg>
